<?xml version="1.0" encoding="UTF-8"?>
<svg id="Layer_1" data-name="Layer 1" xmlns="http://www.w3.org/2000/svg" viewBox="0 0 342 87.75">
  <defs>
    <style>
      .cls-1 {
        fill: #1559b3;
      }

      .cls-2 {
        fill: #fe5959;
      }

      .cls-3 {
        fill: #1257b2;
      }

      .cls-4 {
        fill: #fef6f6;
      }

      .cls-5 {
        fill: #2061b7;
      }

      .cls-6 {
        fill: #fee7e7;
      }

      .cls-7 {
        fill: #0950af;
      }

      .cls-8 {
        fill: #fe5c5c;
      }

      .cls-9 {
        fill: #175ab3;
      }

      .cls-10 {
        fill: #074faf;
      }

      .cls-11 {
        fill: #175ab4;
      }

      .cls-12 {
        fill: #dde6f3;
      }

      .cls-13 {
        fill: #0c52b0;
      }

      .cls-14 {
        fill: #1d5fb6;
      }

      .cls-15 {
        fill: #eaf0f7;
      }

      .cls-16 {
        fill: #fefafa;
      }

      .cls-17 {
        fill: #1458b3;
      }

      .cls-18 {
        fill: #0d53b1;
      }

      .cls-19 {
        fill: #f5f8fb;
      }

      .cls-20 {
        fill: #1357b2;
      }

      .cls-21 {
        fill: #034cad;
      }

      .cls-22 {
        fill: #fe5a5a;
      }

      .cls-23 {
        fill: #185bb4;
      }

      .cls-24 {
        fill: #1156b2;
      }

      .cls-25 {
        fill: #1f60b6;
      }

      .cls-26 {
        fill: #fe5858;
      }

      .cls-27 {
        fill: #f0f4fa;
      }

      .cls-28 {
        fill: #0e54b1;
      }

      .cls-29 {
        fill: #165ab3;
      }

      .cls-30 {
        fill: #eff4f9;
      }

      .cls-31 {
        fill: #1256b2;
      }

      .cls-32 {
        fill: #edf2f9;
      }

      .cls-33 {
        fill: #eef3f9;
      }

      .cls-34 {
        fill: #fefefe;
      }

      .cls-35 {
        fill: #004aac;
      }

      .cls-36 {
        fill: #0c53b0;
      }

      .cls-37 {
        fill: #dee7f3;
      }

      .cls-38 {
        fill: #1b5db5;
      }
    </style>
  </defs>
  <polygon class="cls-34" points="0 87.38 0 0 342 0 342 87.75 0 87.75 0 87.38"/>
  <path class="cls-35" d="M65.98,70.91c-3.77,5.11-2.36,10.37-15.6,10.6-.04-3.66-2.22-5.99-3.32-8.98-1.25-3.41-1.42-6.71-3.65-9.8-2.41-3.33,6.7-6.38-2.77-17.41-.67-1.06,1.58-4.7.07-5.26-2.04-.75-3.8-1.28-5.55-2.39s-3.96,1.04-5.58,1.12l-6.28.31c-3.31.16-5.25-3.75-7.3-5.84-1.7-1.73-3.25-3.37-1.95-5.96.98-1.94-.27-3.84,0-5.87s2.1-5.32,3.84-6.53c6.19-4.33-.41-1.91,7.6-9.85,4.77,2.3,5.81-2.95,16.25-1.55,1.14.15.58,3.18-.04,3.71,1.75.63,9.31,4.87,9.36,3.99,2.53-6.29,5.11,1.12,12.74-.82,1.42-.36,2.58.47,3.12,1.12.78.94-1.07,2.75-.71,3.56,1.94,4.29,3.48,8.99,6.23,12.81,1.19,1.67,3.56,3.11,4.26,5.12,2.24.58,4.67-.95,7.41-1.07-.77,9.59-13.36,12.71-12.31,18.92.55,3.25,2.58,6.69.48,9.74-.99,1.44-5.23,2.54-4.87,4.49.54,2.85.18,3.7-1.41,5.84Z"/>
  <path class="cls-9" d="M291.75,43.41l-206.06.02c-1.04,0-1.55-.36-1.67-.76s-.43-1.47.93-1.47h206.57c.9,0,1.07.33,1.24.49.27.24.64,1.72-1.02,1.72Z"/>
  <path class="cls-21" d="M183.9,22.97c.03.6,1.49,22.07-3.37,14.4l-6.36-10.05c-.91,3.63-.02,6.48-.47,9.91-.13.97-2.89,1.11-2.88.01.04-4.87-.57-9.48.22-14.26.3-1.86,3.68-.61,4.45.7l5.03,8.5c1.1-3.46.04-6.03.59-9.35.16-.98,2.72-.96,2.78.12Z"/>
  <path class="cls-10" d="M126.58,37.72c-1.08-.58-1.37-4.45-2.59-5.7-.58-.6-2.51-1.11-3.02-.32-.97,1.49-.15,3.51-.5,5.54-.16.94-2.83,1.02-2.91.23-.51-4.97-.03-9.78-.22-15.05,4.34-.35,10.6-1.53,11.36,3.38.26,1.67-.5,3.19-2.48,4.26,1.38,2.31,2.65,4.75,2.93,7.39-.11.67-1.91.62-2.57.26Z"/>
  <path class="cls-26" d="M235.55,36.62c-3.26,2.19-7.1,1.08-10.59,1.22l.03-15.52c3.55-.15,7.23-.9,10.39,1.01,4.28,2.58,4.55,10.35.16,13.29Z"/>
  <path class="cls-21" d="M97.9,35.25c-1.05-1.65-5.01-1.38-6.37-.29-.8.64-.6,1.98-1.03,2.4-.69.68-2.36.95-3.1.05,1.44-4.6,3.16-9.47,4.99-14.41.47-1.28,3.95-1.41,4.39-.17l5.33,14.81c-1.14.57-1.8.22-2.68.25s-.66-1.28-1.53-2.64Z"/>
  <path class="cls-21" d="M164.04,35.14c-1.17-1.49-5.12-1.32-6.37-.13-.83.79-.58,2.05-1.04,2.42-.64.52-2.05.87-3.05.14l4.88-14.37c.44-1.31,3.86-1.71,4.46-.37,2.1,4.7,3.42,9.37,5.13,14.38.32.93-1.99.81-2.63.69-.77-.13-.48-1.62-1.38-2.76Z"/>
  <path class="cls-2" d="M250.83,35.27c-1.03-1.64-4.99-1.35-6.38-.3-.82.62-.57,1.99-1.01,2.38-.71.64-2.07.99-3.18.14l5.1-14.52c.46-1.31,3.96-1.33,4.47.03,1.82,4.83,3.47,9.28,4.92,14.29.22.76-1.78.71-2.36.62-.88-.13-.72-1.33-1.54-2.64Z"/>
  <path class="cls-8" d="M221.76,27.81c-.59,5.62-7.35,3.6-8.02,4.67s.1,4.43-.6,5.17c-.43.46-2.63.5-2.69-.16-.42-5-.13-9.85-.12-15.13,2.67-.36,5.18-.43,7.8.03,2.82.49,3.87,3.02,3.62,5.42Z"/>
  <path class="cls-2" d="M280.27,30.14c-.03,1.84-5.61-.02-6.25,1.47-.35.81-.56,3.09.41,3.42,2.32.8,4.39-.14,6.55.45.7.19.69,2.45-.33,2.44l-9.96-.07.05-15.55c3.62-.33,6.9-.25,10.3-.03.34.41.46,2.13-.02,2.17l-6.75.57c-.65.29-.73,2.65-.1,3.02,2.61,1.51,6.15-1.29,6.11,2.09Z"/>
  <path class="cls-26" d="M199.3,35.39c7.99.59.54-13.81,5.83-13.29,2.08.2,1.18,11.54.35,13.23-1.93,3.94-9.43,3.94-11.37,0-1.15-2.33-1.16-12.36-.16-13.02.53-.35,2.29-.41,2.32.61l.24,9.83c.04,1.72,1.43,2.55,2.8,2.65Z"/>
  <path class="cls-2" d="M292.76,37.38c-4.36,2.11-10.71-.6-9.24-2.86,1.7-2.63,6.17,3.72,8.04-.3s-6.29-2.03-7.74-5.95c-.66-1.78-.45-3.99,1.21-5.14,2.37-1.64,5.34-1.47,7.91-.41,1.2.5,1.47,1.36.65,2.47-.98,1.33-6.09-2.47-6.94.85s7.16,1.37,8.16,5.67c.52,2.22.12,4.63-2.06,5.68Z"/>
  <path class="cls-21" d="M141.95,29.49c-.1,2.45.47,4.62,2.23,5.47,5.02,2.45,4.97-4.02,7.67-1.59.7.63.29,1.5-.32,2.34-1.88,2.57-5.18,2.84-8.23,1.93-2.76-.82-4.53-3.68-4.6-7.16-.07-3.3.96-6.44,3.79-7.75,2.63-1.22,6.01-1.21,8.53.78.84.66,1.24,1.71.64,2.36-2.28,2.44-2.48-2.34-6.95-1.01-1.67.49-2.66,2.23-2.76,4.63Z"/>
  <path class="cls-7" d="M113.75,30.9c-1.43,1.29-4.17.17-5.92.85-.49,1.76.02,3.48-.39,5.56-.2,1.01-2.85.91-2.89-.07-.24-5.19-.13-9.75-.03-14.93,3.38-.18,6.68-.54,9.76.17.49.11.35,1.88-.12,2.03-2.1.63-5.85-.3-6.35.78-.38.81-.39,2.3-.04,3.01.86,1.74,7.53-.99,5.99,2.6Z"/>
  <path class="cls-22" d="M263.71,24.95l-.31,12.31c-.03,1.08-2.87.98-2.89-.03l-.3-12.43c-2.04-.06-4.53.68-4.69-2.22,1.53-.81,12.11-.5,12.43-.15s.39,1.56-.08,1.9c-.95.7-2.35.24-4.16.61Z"/>
  <path class="cls-13" d="M126.16,51.69c1.05,1.86-1.51,9.79-1.93,10.84-1.36,3.42-4.51-6.5-4.65-6.88-1.59,2.04-1.02,7.24-2.96,7.16-.65-.03-.93-.66-.73-1.56l1.71-7.85c.19-.89.72-1.16,1.28-1.21,2.48-.2,2.33,4.31,4.24,6.35,1.37-2.08.09-5.02,3.04-6.85Z"/>
  <path class="cls-38" d="M135.49,36.87c.07,1.5-2.9,1.37-2.99.61-.52-4.72-.14-9.47-.18-14.52,0-1.03,2.38-1.07,2.88-.52.6,4.26.06,9.21.29,14.43Z"/>
  <path class="cls-10" d="M83,58.83c-.56,2.39-2.78,14.61-5.86,11.65-.53-.51-1.27-1.88-1.06-2.98l1.15-6.23c.63-1.39,3.7-1.96,4.47-4.13.17-.49,1.49.84,1.29,1.69Z"/>
  <path class="cls-36" d="M223.12,62.6c-.91.6-1.66-.2-1.57-.65l.48-2.6c.36-1.96-2.04-1.38-3.41-1.35-2.69.05-.5,5.94-4.11,4.66.71-3.35.96-7.19,2.64-10.65,1.78.27,1.22,1.89,1.11,3.16-.13,1.52,2.15,1.04,3.29,1.06,2.21.04.98-3.96,3.06-4,1.91-.03-.7,8.01-1.49,10.36Z"/>
  <path class="cls-28" d="M252.44,62.68c-1.9-.22-3.77.53-5.43-.04-2.28-.78-1.6-3.88-.96-5.6.93-2.47,3.47-2.21,5.88-1.95.62-1.35.44-4.11,2.71-3.35l-2.2,10.93Z"/>
  <path class="cls-31" d="M132.75,59.42c-1.6.95-1.58,1.27.06.94.27.03,1.4.64,1.03,1.2-1.02,1.55-3.76,1.95-5.26.65-1.78-1.54-1.21-4.4-.04-5.84,1.36-1.67,4.01-2.27,5.89-.81.88.68.48,2.19-.07,2.85-.34.4-.91.81-1.61,1.01Z"/>
  <path class="cls-11" d="M231.75,62.55c-1.1-.35-1.48-.7-.64-1.57-.86-.7-.98-1.69-.35-2.95-.61,1.04-1.3,2.02-2.07,2.95,1.49.26,1.99.75,1.49,1.46-1.14.57-2.15.48-2.7.11-2.09-1.43-1.18-6.46,1.36-7.37,1.88-.67,3.79-.23,5.97-.02-.71,3.12-.54,7.89-3.07,7.39Z"/>
  <path class="cls-18" d="M193.13,55.71c1.73,1.72.61,5.99-2.1,6.93-1.19.41-3.36.65-4.34-.78-1.8-2.62-.18-6.51,2.99-7.04,1.37-.23,2.62.08,3.45.89Z"/>
  <path class="cls-20" d="M186.22,52.59c-4.96,5.01-5.12,9.64-6.65,10.24-.3.12-1.02-.34-.82-1,1.65-5.49-3.2-9.46-.6-9.57,2.11-.09,1.41,3.69,3.27,3.56,1.47-1.68,2.16-4.33,4.8-3.23Z"/>
  <path class="cls-38" d="M241.75,57.21c-.27-1.12-1.87-.7-2.37-.19-1.59,1.63-.72,6.68-3.46,5.87,0-2.87.79-5.01,1.45-7.8,2.11.43,3.62-.44,5.82-.27,1.28,2.73.85,6.38-1.49,8.43-1.44-2.21.55-3.96.05-6.04Z"/>
  <path class="cls-23" d="M153.34,58.9c1.01,1.3.28,2.91-.77,3.5-1.94,1.09-4.57.43-5.02-.67-.11-.28.06-.75.37-.91.84-.42,2.02.75,3.25.29,3.86-1.45-3.16-.84-2.67-4.25.2-1.4,1.39-2.04,3.04-2.13.7-.04,1.56.15,2.28.52.35.18.39.51,0,1.42-1.22-.03-2.46-.64-3.38.33.45,1.1,2,.75,2.9,1.9Z"/>
  <path class="cls-29" d="M140.04,60.39c-1.29,1.93-2.23,1.07-.71-.6.6-1.85.7-4.23,3.21-5.21l1.27,4.69c1.47-1.47.77-3.88,3.61-4.58-.62,2.91-1.74,6.38-4.09,8.4-1.66-.6-1.34-2.9-1.5-4.51-.92-.25-1.5,1.06-1.78,1.8Z"/>
  <path class="cls-1" d="M260.5,58.89c1.04,1.42.23,2.94-.74,3.52-1.42.86-4.28.75-5.01-.63-1.35-2.55,4.92,1.06,3.96-1.71-.27-.77-3.4-.63-3.06-3.16.15-1.08.95-1.88,2.36-2.07s3.11-.18,3.42,1.42l-3.84.58c.38,1.38,2.07.89,2.92,2.05Z"/>
  <path class="cls-24" d="M166.74,56.51c-1.42.19-1.47-.41-.06-.89,1.18-.89,4.03-1.44,4.48.56.51,2.3-.44,4.9-1.52,6.94-2.88-.38.74-5.28-.82-6.3-.64-.42-1.42-.42-2.06-.31Z"/>
  <path class="cls-3" d="M198,60.97c1.13.1,1.62.44,1.45,1-.33.91-1.7,1.01-2.44.88-1.29-.24-1.82-1.61-1.56-2.93.45-2.23.64-5.83,2.55-4.86,1.12.57-1.29,4.03,0,5.91Z"/>
  <path class="cls-23" d="M199.45,61.97c-.5-.26-1.05-.42-1.45-1,4.62.56,1.68-7.1,5.18-5.91.24,2.49-.5,5.34-1.49,7.4-.44.93-1.7-.21-2.25-.49Z"/>
  <path class="cls-24" d="M208.08,57.16c-1.74,1.7-.33,4.5-2.95,5.93-1.15-2.89.56-5.05.78-8,1.68.21,2.96-.04,4.87-.18.27,2.16-1.83,1.38-2.71,2.24Z"/>
  <path class="cls-17" d="M160.3,55.15c3.47-2.41.42,8.49-.77,8.18-1.76-.64.96-8.32.77-8.18Z"/>
  <path class="cls-13" d="M166.67,55.62c-.05.27.17.65.06.89-1.43,3.25-1.23,7.08-3.15,6.17-.98-.47.89-6.76,1.33-7.71.63-.12,1.53.44,1.76.66Z"/>
  <path class="cls-14" d="M138.69,59.76c.21.03.42.04.63.03-.21.62.14.91.71.6-.48,1.26-1.19,2.95-2.79,2.17-.65-2.45-.67-5.08,0-7.53h.75c.27,1.55.5,3.12.69,4.73Z"/>
  <path class="cls-25" d="M137.25,62.56c-1.27-2.06-1.32-5.51,0-7.53v7.53Z"/>
  <path class="cls-5" d="M161.44,51.7c.58-.18.9.03,1.08.25.38.47.48,1.41-.23,1.68-.51.19-1.14.17-1.49-.43-.27-.46-.13-1.27.64-1.5Z"/>
  <path class="cls-15" d="M132.75,59.42l.06.94c-.61.87-2.45,1.19-3.44-.19,1.2-1.28,2.36-.47,3.37-.75Z"/>
  <path class="cls-25" d="M138.69,59.76c-1.65-.98-.26-3.22-.69-4.73,1.66.86.38,3.2.69,4.73Z"/>
  <path class="cls-11" d="M231.11,60.98c.15.55.37,1.07.64,1.57-.83-.16-1.25,0-1.56-.11-.34-.55-1.26-.86-1.49-1.46.06-2.14,1.86-2.03,2.42,0Z"/>
  <path class="cls-19" d="M125.18,25.51c.93,1.39.29,2.54-.35,2.9-.87.49-2.4.53-3.19.44-1.07-.13-1.64-2.2-.81-3.68.56-1.01,3.55-.88,4.35.33Z"/>
  <path class="cls-16" d="M232.93,25.27c3.17,1.18,3.09,7.56.71,9.12-1.3.86-4.39,1.51-5.25.37-.61-2.98-.56-6.33,0-9.49.38-1.11,3.44-.41,4.53,0Z"/>
  <path class="cls-37" d="M96.58,31.25c-1.21.66-2.49.57-3.83.06.41-2.12.83-3.56,1.76-5.43,1.22,1.67,1.38,3.04,2.07,5.37Z"/>
  <path class="cls-12" d="M162.85,31.26c-1.24.71-2.61.48-3.99.13.62-2.38.99-3.98,2-6.19l1.99,6.06Z"/>
  <path class="cls-6" d="M249.5,31.25c-1.25.65-2.63.55-3.89.05.47-2.07.85-3.55,1.88-5.41,1.09,1.69,1.3,3.02,2,5.36Z"/>
  <path class="cls-4" d="M213.95,25.14c.86-1.11,3.05-.54,3.9.16.96.79.97,2.51.27,3.29-.99,1.12-2.61,1.09-3.5.94-1.37-.23-1.82-2.91-.67-4.39Z"/>
  <path class="cls-30" d="M251.26,58.41c-.12,1.31-.52,1.85-.88,2.19-.63.59-1.68.79-2.34.23-.73-.62-.57-1.63-.23-2.64s1-1.57,1.76-1.69c.87-.14,1.83.36,1.69,1.91Z"/>
  <path class="cls-32" d="M131.77,58.09c-1.06.01-1.91-.11-1.97-.41.09.45.25-1.65,2.56-1.14.66.14.82,1.53-.59,1.55Z"/>
  <path class="cls-27" d="M231.11,60.98h-2.42c-.59-1.48-.09-4.79,2.27-4.34,2.13.4.98,3.27.14,4.34Z"/>
  <path class="cls-33" d="M191.82,58.3c-.15,1.37-.47,1.86-.81,2.2-.68.69-1.81.89-2.34.48-.8-.63-.75-1.89-.34-2.9s1.06-1.46,1.82-1.58c.83-.13,1.82.32,1.66,1.8Z"/>
</svg>